# xmcd CD database file
#
# Track frame offsets:
#	150
#	29130
#	52992
#	69847
#	108190
#	134217
#	158395
#	180902
#	200750
#	229925
#	255885
#	284142
#	303267
#
# Disc length: 4475 seconds
#
# Revision: 0
# Processed by: cddbd v1.5.1PL0 Copyright (c) Steve Scherf et al.
# Submitted via: CDex 1.51
#
DISCID=b211790d
DTITLE=Jarek Smietana and Wojtek Karolak - Phone Consultations
DYEAR=1996
DGENRE=Jazz
TTITLE0=Follow The Fellow
TTITLE1=Blues Plues
TTITLE2=Bemsha Swing
TTITLE3=The Nearness Of You
TTITLE4=Incentive
TTITLE5=Telephonious
TTITLE6=My Slavic Soul
TTITLE7=Back To The Roots
TTITLE8=Few Warm Words
TTITLE9=Indian Summer
TTITLE10=Alice In Wonderland
TTITLE11=Old Devil Moon
TTITLE12=If You Want To Ask You Don't Have To Know
EXTD=YEAR: 1996
EXTT0=
EXTT1=
EXTT2=
EXTT3=
EXTT4=
EXTT5=
EXTT6=
EXTT7=
EXTT8=
EXTT9=
EXTT10=
EXTT11=
EXTT12=
PLAYORDER=
